<svg id="logo" data-name="Layer 1" xmlns="http://www.w3.org/2000/svg" viewBox="0 0 73.9 141.28">
    <defs>
        <style>
            #logo {position: absolute;left: 50%;top: 50%;transform: translate(-50%,-50%);width: 400px;height: 400px;}
            .top, .left, .right {position: absolute;z-index: 5;fill: none;stroke: #fff;stroke-linejoin: round;opacity:1;}
            .top {fill: #6585b7;animation: top 5.2s 1 alternate}
            .right {fill: #254577;animation: right 5.2s 1 alternate}
            .left {fill: #3f61a1;animation: left 5.2s 1 alternate}
            
            @keyframes top {
                0% {fill: #6585b7;opacity: 0;}
                80% {fill: #6585b7;opacity: 0;}
                100% {fill: #6585b7;opacity: 1;}
            }
            @keyframes right {
                0% {fill: #254577;opacity: 0;}
                80% {fill: #254577;opacity: 0;}
                100% {fill: #254577;opacity: 1;}
            }
            @keyframes left {
                0% {fill: #3f61a1;opacity: 0;}
                80% {fill: #3f61a1;opacity: 0;}
                100% {fill: #3f61a1;opacity: 1;}
            }
    
            .cls, .cls2, .cls3 {position: relative;z-index: 10;fill: none;stroke-linecap: round;stroke-linejoin: round;}
            .cls {stroke-dashoffset: 50%;animation: ani 5s 1 alternate;}
            .cls2 {stroke-dashoffset: 10%;animation: ani2 5s 1 alternate;}
            .cls3 {stroke-dashoffset: 30%;animation: ani3 5s 1 alternate;}
            @keyframes ani {
                0% {
                    stroke-dasharray: 0 35%;
                    stroke: #000;
                }
                70% {stroke: #000;}
                100% {
                    stroke-dashoffset: -35%;
                    stroke-dasharray: 50% 0;
                    stroke: #fff;
                }
            }
            @keyframes ani2 {
                0% {
                    stroke-dasharray: 0 30%;
                    stroke: #000;
                }
                70% {stroke: #000;}
                100% {
                    stroke-dashoffset: -10%;
                    stroke-dasharray: 30% 0;
                    stroke: #fff;
                }
            }
            @keyframes ani3 {
                0% {
                    stroke-dasharray: 0 60%;
                    stroke: #000;
                }
                70% {stroke: #000;}
                100% {
                    stroke-dashoffset: -30%;
                    stroke-dasharray: 60% 0;
                    stroke: #fff;
                }
            }
        </style>
    </defs>
    <polygon class="cls-1 top" points="0.52 7.54 12.71 0.5 49.1 21.59 36.96 28.58 0.52 7.54"/>
    <polygon class="cls-1 top" points="49.1 35.59 61.25 28.58 73.4 35.59 61.29 42.58 49.1 35.59"/>
    <polygon class="cls-2 right" points="61.25 140.78 73.4 133.77 73.4 35.59 61.29 42.58 61.25 140.78"/>
    <polygon class="cls-2 right" points="36.94 126.77 49.09 119.75 49.05 91.66 36.98 84.67 36.94 126.77"/>
    <polygon class="cls-1 top" points="0.52 77.67 12.66 70.65 24.81 77.67 12.66 84.68 0.52 77.67"/>
    <polygon class="cls-2 right" points="12.66 56.63 24.81 49.62 24.81 35.59 12.66 28.58 12.66 56.63"/>
    <polygon class="cls-1 top" points="49.1 77.67 49.11 63.64 24.81 49.62 12.66 56.63 49.1 77.67"/>
    <polygon class="cls-2 right" points="12.66 84.68 12.66 98.7 24.86 91.66 24.81 77.67 12.66 84.68"/>
    <polygon class="cls-1 top" points="24.81 105.72 24.86 91.66 12.66 98.7 24.81 105.72"/>
    <polygon class="cls-3 left" points="36.96 28.58 0.52 7.54 0.52 63.64 24.81 77.67 24.81 105.72 12.66 98.7 12.66 84.68 0.52 77.67 0.5 105.73 36.94 126.77 36.98 84.67 49.05 91.66 49.1 133.77 61.25 140.78 61.29 42.58 49.1 35.59 49.1 77.67 12.66 56.63 12.66 28.58 24.81 35.59 24.79 57.22 36.94 64.23 36.96 28.58"/>
    <polygon class="cls-2 right" points="49.1 21.59 49.09 57.22 36.94 64.23 36.96 28.58 49.1 21.59"/>
    
    <polygon class="cls-1 cls" points="36.98 84.67 36.94 126.77 0.5 105.73 0.52 77.67 12.66 84.68 12.66 98.7 24.81 105.72 24.81 77.67 0.52 63.64 0.52 7.54 36.96 28.58 36.94 64.23 24.79 57.22 24.81 35.59 12.66 28.58 12.66 56.63 49.1 77.67 49.1 35.59 61.27 42.58 61.25 140.78 49.1 133.77 49.05 91.66 36.98 84.67"/>
    <polyline class="cls-1 cls2" points="0.52 7.54 12.71 0.5 49.1 21.59 49.1 35.59 61.25 28.58 73.4 35.59 73.4 133.77 61.25 140.78"/>
    <line class="cls-1 cls3" x1="0.52" y1="77.67" x2="12.67" y2="70.65"/>
    <line class="cls-1 cls3" x1="12.67" y1="84.68" x2="24.81" y2="77.67"/>
    <line class="cls-1 cls3" x1="12.67" y1="98.71" x2="24.86" y2="91.66"/>
    <line class="cls-1 cls3" x1="36.94" y1="126.77" x2="49.09" y2="119.76"/>
    <line class="cls-1 cls3" x1="36.94" y1="64.23" x2="49.09" y2="57.21"/>
    <line class="cls-1 cls3" x1="12.67" y1="56.63" x2="24.81" y2="49.62"/>
    <line class="cls-1 cls3" x1="43.7" y1="60.52" x2="49.11" y2="63.64"/>
    <line class="cls-1 cls3" x1="36.96" y1="28.58" x2="49.11" y2="21.58"/>
    <line class="cls-1 cls3" x1="61.27" y1="42.57" x2="73.4" y2="35.59"/>
</svg>